<svg xmlns="http://www.w3.org/2000/svg" xmlns:xlink="http://www.w3.org/1999/xlink" width="1920" zoomAndPan="magnify" viewBox="0 0 1440 809.999993" height="1080" preserveAspectRatio="xMidYMid meet" version="1.0"><defs><filter x="0%" y="0%" width="100%" height="100%" id="94f6e6c614"><feColorMatrix values="0 0 0 0 1 0 0 0 0 1 0 0 0 0 1 0 0 0 1 0" color-interpolation-filters="sRGB"/></filter><mask id="08977fc4fa"><g filter="url(#94f6e6c614)"><rect x="-144" width="1728" fill="#000000" y="-80.999999" height="971.999992" fill-opacity="0.28"/></g></mask><clipPath id="c2c71f7a5d"><path d="M 957 0 L 1203 0 L 1203 159 L 957 159 Z M 957 0 " clip-rule="nonzero"/></clipPath><clipPath id="3ef3590ba5"><path d="M 921 0 L 1440 0 L 1440 473 L 921 473 Z M 921 0 " clip-rule="nonzero"/></clipPath><clipPath id="f265fd7645"><path d="M 423 74 L 1160 74 L 1160 810 L 423 810 Z M 423 74 " clip-rule="nonzero"/></clipPath><clipPath id="9980ed0a33"><path d="M 0 0 L 130 0 L 130 129 L 0 129 Z M 0 0 " clip-rule="nonzero"/></clipPath><clipPath id="7c1a6c6b7d"><path d="M 0 0 L 690 0 L 690 443 L 0 443 Z M 0 0 " clip-rule="nonzero"/></clipPath><clipPath id="e8c47ebcf2"><path d="M 0 128 L 190 128 L 190 321 L 0 321 Z M 0 128 " clip-rule="nonzero"/></clipPath><clipPath id="c3ad5739b4"><path d="M 0 139 L 535 139 L 535 810 L 0 810 Z M 0 139 " clip-rule="nonzero"/></clipPath><clipPath id="b1e3fa688f"><path d="M 0 633 L 157 633 L 157 810 L 0 810 Z M 0 633 " clip-rule="nonzero"/></clipPath><clipPath id="e45dffa5b0"><path d="M 775 18 L 1008 18 L 1008 251 L 775 251 Z M 775 18 " clip-rule="nonzero"/></clipPath><clipPath id="add8e4170a"><path d="M 751.660156 193.234375 L 950.355469 -5.460938 L 1031.222656 75.410156 L 832.53125 274.101562 Z M 751.660156 193.234375 " clip-rule="nonzero"/></clipPath><clipPath id="fb95a503b9"><path d="M 909.699219 35.195312 C 932.03125 12.867188 968.238281 12.867188 990.570312 35.195312 C 1012.898438 57.527344 1012.898438 93.734375 990.570312 116.0625 L 872.964844 233.667969 C 850.632812 256 814.425781 256 792.09375 233.667969 C 769.765625 211.339844 769.765625 175.132812 792.09375 152.800781 Z M 909.699219 35.195312 " clip-rule="nonzero"/></clipPath><clipPath id="70ee9acf8f"><path d="M 0 0 L 233 0 L 233 233 L 0 233 Z M 0 0 " clip-rule="nonzero"/></clipPath><clipPath id="2af0d3276d"><path d="M -23.339844 175.234375 L 175.355469 -23.460938 L 256.222656 57.410156 L 57.53125 256.101562 Z M -23.339844 175.234375 " clip-rule="nonzero"/></clipPath><clipPath id="c53ff0745a"><path d="M 134.699219 17.195312 C 157.03125 -5.132812 193.238281 -5.132812 215.570312 17.195312 C 237.898438 39.527344 237.898438 75.734375 215.570312 98.0625 L 97.964844 215.667969 C 75.632812 238 39.425781 238 17.09375 215.667969 C -5.234375 193.339844 -5.234375 157.132812 17.09375 134.800781 Z M 134.699219 17.195312 " clip-rule="nonzero"/></clipPath><clipPath id="51782af4ac"><rect x="0" width="233" y="0" height="233"/></clipPath><clipPath id="e6668a681e"><path d="M 482 608 L 771 608 L 771 810 L 482 810 Z M 482 608 " clip-rule="nonzero"/></clipPath><clipPath id="8ef8013088"><path d="M 312 319 L 549 319 L 549 556 L 312 556 Z M 312 319 " clip-rule="nonzero"/></clipPath><clipPath id="d274edbbe2"><path d="M 288.832031 498.648438 L 491.320312 296.164062 L 572.1875 377.03125 L 369.699219 579.519531 Z M 288.832031 498.648438 " clip-rule="nonzero"/></clipPath><clipPath id="08fbc557f8"><path d="M 450.796875 336.683594 C 473.128906 314.355469 509.335938 314.355469 531.664062 336.683594 C 553.996094 359.015625 553.996094 395.222656 531.664062 417.554688 L 410.136719 539.085938 C 387.804688 561.414062 351.597656 561.414062 329.265625 539.085938 C 306.9375 516.753906 306.9375 480.546875 329.265625 458.214844 Z M 450.796875 336.683594 " clip-rule="nonzero"/></clipPath><clipPath id="2cce212549"><path d="M 0 0 L 237 0 L 237 237 L 0 237 Z M 0 0 " clip-rule="nonzero"/></clipPath><clipPath id="356ef7301f"><path d="M -23.167969 179.648438 L 179.320312 -22.835938 L 260.1875 58.03125 L 57.699219 260.519531 Z M -23.167969 179.648438 " clip-rule="nonzero"/></clipPath><clipPath id="8e4f171325"><path d="M 138.796875 17.683594 C 161.128906 -4.644531 197.335938 -4.644531 219.664062 17.683594 C 241.996094 40.015625 241.996094 76.222656 219.664062 98.554688 L 98.136719 220.085938 C 75.804688 242.414062 39.597656 242.414062 17.265625 220.085938 C -5.0625 197.753906 -5.0625 161.546875 17.265625 139.214844 Z M 138.796875 17.683594 " clip-rule="nonzero"/></clipPath><clipPath id="eefe9ef784"><rect x="0" width="237" y="0" height="237"/></clipPath><clipPath id="b86ce3d558"><path d="M 501 0 L 946 0 L 946 297 L 501 297 Z M 501 0 " clip-rule="nonzero"/></clipPath><clipPath id="ca0ff36364"><path d="M 0 476 L 644 476 L 644 810 L 0 810 Z M 0 476 " clip-rule="nonzero"/></clipPath><clipPath id="d8b193b0e0"><path d="M 920 177 L 1440 177 L 1440 810 L 920 810 Z M 920 177 " clip-rule="nonzero"/></clipPath><clipPath id="d34267b0a1"><path d="M 351 417 L 1193 417 L 1193 810 L 351 810 Z M 351 417 " clip-rule="nonzero"/></clipPath><clipPath id="37ed861315"><path d="M 841 654 L 1017 654 L 1017 810 L 841 810 Z M 841 654 " clip-rule="nonzero"/></clipPath><clipPath id="bab1c3b57e"><path d="M 1180 647 L 1417 647 L 1417 810 L 1180 810 Z M 1180 647 " clip-rule="nonzero"/></clipPath><clipPath id="66e3604bdd"><path d="M 1156.734375 826.039062 L 1359.21875 623.554688 L 1440.085938 704.421875 L 1237.601562 906.90625 Z M 1156.734375 826.039062 " clip-rule="nonzero"/></clipPath><clipPath id="0ba8db6db7"><path d="M 1318.699219 664.074219 C 1341.027344 641.742188 1377.234375 641.742188 1399.566406 664.074219 C 1421.898438 686.40625 1421.898438 722.609375 1399.566406 744.941406 L 1278.035156 866.472656 C 1255.703125 888.804688 1219.5 888.804688 1197.167969 866.472656 C 1174.835938 844.140625 1174.835938 807.9375 1197.167969 785.605469 Z M 1318.699219 664.074219 " clip-rule="nonzero"/></clipPath><clipPath id="9ed1256995"><path d="M 0 0 L 237 0 L 237 163 L 0 163 Z M 0 0 " clip-rule="nonzero"/></clipPath><clipPath id="992b320ef0"><path d="M -23.265625 179.039062 L 179.21875 -23.445312 L 260.085938 57.421875 L 57.601562 259.90625 Z M -23.265625 179.039062 " clip-rule="nonzero"/></clipPath><clipPath id="d808c7d17d"><path d="M 138.699219 17.074219 C 161.027344 -5.257812 197.234375 -5.257812 219.566406 17.074219 C 241.898438 39.40625 241.898438 75.609375 219.566406 97.941406 L 98.035156 219.472656 C 75.703125 241.804688 39.5 241.804688 17.167969 219.472656 C -5.164062 197.140625 -5.164062 160.9375 17.167969 138.605469 Z M 138.699219 17.074219 " clip-rule="nonzero"/></clipPath><clipPath id="a59ab59101"><rect x="0" width="237" y="0" height="163"/></clipPath><clipPath id="a20963b601"><path d="M 0 0 L 521 0 L 521 653 L 0 653 Z M 0 0 " clip-rule="nonzero"/></clipPath><clipPath id="2fee5fd953"><rect x="0" width="1440" y="0" height="810"/></clipPath><clipPath id="1935797580"><rect x="0" width="1440" y="0" height="810"/></clipPath></defs><rect x="-144" width="1728" fill="#ffffff" y="-80.999999" height="971.999992" fill-opacity="1"/><rect x="-144" width="1728" fill="#161624" y="-80.999999" height="971.999992" fill-opacity="1"/><g mask="url(#08977fc4fa)"><g transform="matrix(1, 0, 0, 1, 0, 0.000000000000039746)"><g clip-path="url(#1935797580)"><g transform="matrix(1, 0, 0, 1, 0, 0.000000000000039746)"><g clip-path="url(#2fee5fd953)"><g clip-path="url(#c2c71f7a5d)"><path stroke-linecap="round" transform="matrix(0.540685, -0.540685, 0.540685, 0.540685, 1040.641586, 63.701897)" fill="none" stroke-linejoin="miter" d="M 10.997475 10.999746 L 112.24344 10.999746 " stroke="#55edf9" stroke-width="22" stroke-opacity="1" stroke-miterlimit="4"/></g><g clip-path="url(#3ef3590ba5)"><path stroke-linecap="round" transform="matrix(0.540685, -0.540685, 0.540685, 0.540685, 1246.624168, 100.067578)" fill="none" stroke-linejoin="miter" d="M 43.002852 43.000684 L 222.758872 43.000684 " stroke="#f3931d" stroke-width="86" stroke-opacity="1" stroke-miterlimit="4"/></g><path stroke-linecap="round" transform="matrix(0.540685, -0.540685, 0.540685, 0.540685, 907.763049, 500.093131)" fill="none" stroke-linejoin="miter" d="M 7.999475 8.000621 L 107.049153 8.000621 " stroke="#e61077" stroke-width="16" stroke-opacity="1" stroke-miterlimit="4"/><path stroke-linecap="round" transform="matrix(0.540685, -0.540685, 0.540685, 0.540685, 1259.474703, 306.254769)" fill="none" stroke-linejoin="miter" d="M 9.000795 8.999198 L 78.588431 8.999198 " stroke="#55edf9" stroke-width="18" stroke-opacity="1" stroke-miterlimit="4"/><g clip-path="url(#f265fd7645)"><path stroke-linecap="round" transform="matrix(0.540685, -0.540685, 0.540685, 0.540685, 700.199563, 494.321659)" fill="none" stroke-linejoin="miter" d="M 36.499758 36.497267 L 229.263725 36.50088 " stroke="#f8c81e" stroke-width="73" stroke-opacity="1" stroke-miterlimit="4"/></g><g clip-path="url(#9980ed0a33)"><path stroke-linecap="round" transform="matrix(0.540685, -0.540685, 0.540685, 0.540685, -32.470638, 33.758068)" fill="none" stroke-linejoin="miter" d="M 11.001481 11.001009 L 112.247446 11.001009 " stroke="#55edf9" stroke-width="22" stroke-opacity="1" stroke-miterlimit="4"/></g><g clip-path="url(#7c1a6c6b7d)"><path stroke-linecap="round" transform="matrix(0.540685, -0.540685, 0.540685, 0.540685, 173.512015, 70.123756)" fill="none" stroke-linejoin="miter" d="M 42.999574 43.001874 L 222.759207 42.998262 " stroke="#f3931d" stroke-width="86" stroke-opacity="1" stroke-miterlimit="4"/></g><g clip-path="url(#e8c47ebcf2)"><path stroke-linecap="round" transform="matrix(0.540685, -0.540685, 0.540685, 0.540685, 58.498755, 251.145007)" fill="none" stroke-linejoin="miter" d="M 7.999257 7.998376 L 107.052547 8.001989 " stroke="#e61077" stroke-width="16" stroke-opacity="1" stroke-miterlimit="4"/></g><path stroke-linecap="round" transform="matrix(0.540685, -0.540685, 0.540685, 0.540685, 89.979143, 127.670536)" fill="none" stroke-linejoin="miter" d="M 8.998264 9.000741 L 44.124415 9.000741 " stroke="#f3931d" stroke-width="18" stroke-opacity="1" stroke-miterlimit="4"/><path stroke-linecap="round" transform="matrix(0.544686, -0.536654, 0.536654, 0.544686, 495.987509, 113.423129)" fill="none" stroke-linejoin="miter" d="M 8.998614 8.999871 L 45.838023 9.000765 " stroke="#f3931d" stroke-width="18" stroke-opacity="1" stroke-miterlimit="4"/><path stroke-linecap="round" transform="matrix(0.540685, -0.540685, 0.540685, 0.540685, 1163.091404, 157.614358)" fill="none" stroke-linejoin="miter" d="M 9.001442 8.999451 L 44.127593 8.999451 " stroke="#f3931d" stroke-width="18" stroke-opacity="1" stroke-miterlimit="4"/><g clip-path="url(#c3ad5739b4)"><path stroke-linecap="round" transform="matrix(0.540685, -0.540685, 0.540685, 0.540685, 75.329695, 559.782952)" fill="none" stroke-linejoin="miter" d="M 36.502565 36.499417 L 229.262919 36.499417 " stroke="#f8c81e" stroke-width="73" stroke-opacity="1" stroke-miterlimit="4"/></g><g clip-path="url(#b1e3fa688f)"><path stroke-linecap="round" transform="matrix(0.540685, -0.540685, 0.540685, 0.540685, -5.732337, 783.490181)" fill="none" stroke-linejoin="miter" d="M 11.002984 10.999471 L 112.248949 10.999471 " stroke="#55edf9" stroke-width="22" stroke-opacity="1" stroke-miterlimit="4"/></g><g clip-path="url(#e45dffa5b0)"><g clip-path="url(#add8e4170a)"><g clip-path="url(#fb95a503b9)"><g transform="matrix(1, 0, 0, 1, 775, 18)"><g clip-path="url(#51782af4ac)"><g clip-path="url(#70ee9acf8f)"><g clip-path="url(#2af0d3276d)"><g clip-path="url(#c53ff0745a)"><path fill="#e61077" d="M -23.339844 175.234375 L 175.039062 -23.144531 L 255.910156 57.722656 L 57.53125 256.101562 Z M -23.339844 175.234375 " fill-opacity="1" fill-rule="nonzero"/></g></g></g></g></g></g></g></g><path stroke-linecap="round" transform="matrix(0.540685, -0.540685, 0.540685, 0.540685, 288.832434, 257.884869)" fill="none" stroke-linejoin="miter" d="M 14.999862 15.003282 L 68.147853 14.99967 " stroke="#e61077" stroke-width="30" stroke-opacity="1" stroke-miterlimit="4"/><g clip-path="url(#e6668a681e)"><path stroke-linecap="round" transform="matrix(0.540685, -0.540685, 0.540685, 0.540685, 595.777368, 766.564541)" fill="none" stroke-linejoin="miter" d="M 14.996585 15.000034 L 68.148188 15.000034 " stroke="#f3931d" stroke-width="30" stroke-opacity="1" stroke-miterlimit="4"/></g><g clip-path="url(#8ef8013088)"><g clip-path="url(#d274edbbe2)"><g clip-path="url(#08fbc557f8)"><g transform="matrix(1, 0, 0, 1, 312, 319)"><g clip-path="url(#eefe9ef784)"><g clip-path="url(#2cce212549)"><g clip-path="url(#356ef7301f)"><g clip-path="url(#8e4f171325)"><path fill="#f3931d" d="M -23.167969 179.648438 L 179.320312 -22.835938 L 260.1875 58.03125 L 57.699219 260.519531 Z M -23.167969 179.648438 " fill-opacity="1" fill-rule="nonzero"/></g></g></g></g></g></g></g></g><g clip-path="url(#b86ce3d558)"><path stroke-linecap="round" transform="matrix(0.540685, -0.540685, 0.540685, 0.540685, 634.454446, 145.081198)" fill="none" stroke-linejoin="miter" d="M 17.499674 17.501215 L 278.012609 17.501215 " stroke="#55edf9" stroke-width="35" stroke-opacity="1" stroke-miterlimit="4"/></g><g clip-path="url(#ca0ff36364)"><path stroke-linecap="round" transform="matrix(0.540685, -0.540685, 0.540685, 0.540685, 190.044649, 893.591471)" fill="none" stroke-linejoin="miter" d="M 34.002672 33.999662 L 261.513497 33.999662 " stroke="#55edf9" stroke-width="68" stroke-opacity="1" stroke-miterlimit="4"/></g><g clip-path="url(#d8b193b0e0)"><path stroke-linecap="round" transform="matrix(0.540685, -0.540685, 0.540685, 0.540685, 1196.680482, 597.355358)" fill="none" stroke-linejoin="miter" d="M 36.501606 36.501811 L 229.26196 36.501811 " stroke="#f8c81e" stroke-width="73" stroke-opacity="1" stroke-miterlimit="4"/></g><g clip-path="url(#d34267b0a1)"><path stroke-linecap="round" transform="matrix(0.540685, -0.540685, 0.540685, 0.540685, 676.95002, 886.813463)" fill="none" stroke-linejoin="miter" d="M 43.001148 42.999366 L 222.76078 43.002978 " stroke="#e61077" stroke-width="86" stroke-opacity="1" stroke-miterlimit="4"/></g><g clip-path="url(#37ed861315)"><path stroke-linecap="round" transform="matrix(0.540685, -0.540685, 0.540685, 0.540685, 909.602192, 751.214094)" fill="none" stroke-linejoin="miter" d="M 9.000613 9.002 L 44.126765 9.002 " stroke="#e61077" stroke-width="18" stroke-opacity="1" stroke-miterlimit="4"/></g><path stroke-linecap="round" transform="matrix(0.540685, -0.540685, 0.540685, 0.540685, 543.554451, 618.774949)" fill="none" stroke-linejoin="miter" d="M 8.999893 8.997098 L 78.583918 9.00071 " stroke="#55edf9" stroke-width="18" stroke-opacity="1" stroke-miterlimit="4"/><path stroke-linecap="round" transform="matrix(0.540685, -0.540685, 0.540685, 0.540685, 903.425289, 664.893443)" fill="none" stroke-linejoin="miter" d="M 8.997725 8.999739 L 120.090862 8.999739 " stroke="#f3931d" stroke-width="18" stroke-opacity="1" stroke-miterlimit="4"/><g clip-path="url(#bab1c3b57e)"><g clip-path="url(#66e3604bdd)"><g clip-path="url(#0ba8db6db7)"><g transform="matrix(1, 0, 0, 1, 1180, 647)"><g clip-path="url(#a59ab59101)"><g clip-path="url(#9ed1256995)"><g clip-path="url(#992b320ef0)"><g clip-path="url(#d808c7d17d)"><path fill="#e61077" d="M -23.265625 179.039062 L 179.21875 -23.445312 L 260.085938 57.421875 L 57.601562 259.90625 Z M -23.265625 179.039062 " fill-opacity="1" fill-rule="nonzero"/></g></g></g></g></g></g></g></g><path stroke-linecap="round" transform="matrix(0.540685, -0.540685, 0.540685, 0.540685, 935.028367, 340.741702)" fill="none" stroke-linejoin="miter" d="M 10.998104 10.999002 L 112.244069 10.999002 " stroke="#55edf9" stroke-width="22" stroke-opacity="1" stroke-miterlimit="4"/><g clip-path="url(#a20963b601)"><path stroke-linecap="round" transform="matrix(0.540685, -0.540685, 0.540685, 0.540685, 66.852104, 357.913653)" fill="none" stroke-linejoin="miter" d="M 33.99823 33.998987 L 261.51628 33.998987 " stroke="#55edf9" stroke-width="68" stroke-opacity="1" stroke-miterlimit="4"/></g><path stroke-linecap="round" transform="matrix(0.540685, -0.540685, 0.540685, 0.540685, 1039.90145, 430.233406)" fill="none" stroke-linejoin="miter" d="M 13.499152 13.500944 L 252.258726 13.500944 " stroke="#f8c81e" stroke-width="27" stroke-opacity="1" stroke-miterlimit="4"/></g></g></g></g></g></svg>